<mxfile host="app.diagrams.net" modified="2024-07-05T11:54:03.687Z" agent="Mozilla/5.0 (Windows NT 10.0; Win64; x64) AppleWebKit/537.36 (KHTML, like Gecko) Chrome/125.0.0.0 Safari/537.36 Edg/125.0.0.0" version="24.6.4" etag="4HBPl8mH5ilB8u2QJz-e" type="github">
  <diagram name="Page-1" id="mjyUakh9s3hRuCxilN73">
    <mxGraphModel>
      <root>
        <mxCell id="0" />
        <mxCell id="1" parent="0" />
      </root>
    </mxGraphModel>
  </diagram>
</mxfile>
